<svg xmlns="http://www.w3.org/2000/svg" viewBox="150 150 780 780">
	<path
		d="m699 383-98 100c-6 6 1 16 9 12l117-49c-7-23-16-44-28-63Zm-136 73 60-149v-1c-34-19-75 7-75 46v101c0 9 11 11 15 3Zm127-87c-15-21-33-40-53-53l-59 147c-4 7 6 14 12 8l100-102Zm-233-63v1l60 149c3 8 15 6 15-3V352c0-39-41-65-75-46Zm45 157-59-147c-20 14-38 32-53 53l100 102c6 6 16-1 12-9Zm-23 20-98-100c-12 19-21 40-28 63l117 49c8 3 14-6 9-12Zm99 122 59 147c20-14 38-32 53-53L590 596c-6-6-16 1-12 9Zm-188 94c15 21 33 39 53 53l59-147c4-8-6-15-12-9L390 699Zm226-142 116 49c5-21 7-42 8-64H619c-9 0-11 12-3 15Zm-15 28 98 100c12-19 21-41 28-63l-117-50c-8-3-15 7-9 13Zm-53 29v144c0 14 12 24 26 22 17-4 34-11 49-20l-60-149c-3-8-15-5-15 3Zm71-89h121c-1-22-3-43-8-63l-116 48c-8 4-6 15 3 15Zm-158 17H340c1 22 3 43 8 64l116-49c8-3 6-15-3-15Zm56 69-60 150c15 8 32 15 50 19 13 2 25-8 25-22V614c0-8-11-11-15-3Zm-53-100-116-49c-5 20-7 41-8 63h121c8 0 11-11 3-15Zm6 61-117 50c7 22 16 44 28 63l98-100c6-6-1-16-9-13Z" />

	<style>
		path {
		fill: #56765e;
		}
	</style>
</svg>