<svg xmlns="http://www.w3.org/2000/svg" viewBox="0 0 1080 1080">
	<path
		d="m699.3 382.7-97.9 99.9c-5.9 6 .6 15.9 8.3 12.6l117.6-49.7c-6.9-22.7-16.3-43.8-28-62.8Zm-136.6 73.4 60.6-149.4c-.2-.1-.5-.3-.7-.4-33.5-18.9-74.5 6.5-74.5 45.5v101.3c0 8.5 11.4 10.8 14.6 3Zm127.4-87.4c-15-21.2-32.9-39.3-52.9-53.1l-59.6 146.9c-3.2 7.8 6.5 14.4 12.4 8.4l100.1-102.2Zm-232.7-62.3c-.2.1-.5.3-.7.4l60.6 149.4c3.2 7.8 14.6 5.5 14.6-3V351.9c0-39-41.1-64.4-74.5-45.5Zm45 156.1-59.6-146.9c-20 13.9-37.9 31.9-52.9 53.1L490 470.9c5.9 6 15.6-.6 12.4-8.4Zm-23.8 20.1-97.9-99.9c-11.6 19-21.1 40.1-28 62.8l117.6 49.7c7.7 3.2 14.1-6.6 8.3-12.6Zm99 122.2 59.6 146.9c20-13.9 37.9-31.9 52.9-53.2L590 596.3c-5.9-6-15.6.6-12.4 8.4Zm-187.7 93.7c15 21.2 32.9 39.3 52.9 53.1l59.6-146.9c3.2-7.8-6.5-14.4-12.4-8.4L389.9 698.5Zm226-141.7 115.8 48.9c4.9-20.3 7.8-41.7 8.3-63.8H618.8c-8.3 0-10.6 11.7-2.9 14.9Zm-14.5 27.8 97.9 99.9c11.6-19 21.1-40.1 27.9-62.9l-117.6-49.7c-7.7-3.2-14.1 6.6-8.3 12.6ZM548.1 614v144c0 13.7 12.3 24.3 25.5 21.5 17.5-3.7 34.1-10.2 49.8-19.1L562.8 611c-3.2-7.8-14.6-5.5-14.6 3Zm70.7-88.6H740c-.6-22.1-3.4-43.5-8.4-63.8l-115.7 48.9c-7.7 3.2-5.4 14.9 2.9 14.9Zm-157.6 16.5H340c.6 22.1 3.4 43.5 8.4 63.8l115.8-48.9c7.7-3.2 5.4-14.9-2.9-14.9Zm56.1 69.2-60.6 149.4c15.6 8.9 32.3 15.4 49.8 19.1 13.2 2.8 25.5-7.8 25.5-21.5v-144c0-8.5-11.4-10.8-14.6-3Zm-53.2-100.6-115.8-48.9c-4.9 20.3-7.8 41.7-8.4 63.8h121.2c8.3 0 10.6-11.7 2.9-14.9Zm6.2 61.5-117.6 49.7c6.9 22.7 16.3 43.9 28 62.9l97.9-99.9c5.9-6-.6-15.9-8.3-12.6Z"
	/>

</svg>