<svg xmlns="http://www.w3.org/2000/svg" viewBox="0 0 1080 1080">
  <path
    d="M783.4 494.3c-32.8 0-32.3 41-32.3 41H764c2.8 0 5.1-2.2 5.2-4.9.6-10.3 2.8-33.3 14.2-33.3s12.3 13.2 13.8 24.1c.6 4-2.4 18.6-16.2 25.8-18.8 9.9-36.7 21.5-36.7 38.4s10.8 25.5 23.1 25.5c20.6 0 27.6-13.4 30.8-24.2v17.1c0 2.9 2.3 5.2 5.2 5.2H816v-73.5s1.7-41.1-32.6-41.1Zm-5.5 108.2c-9.8 0-14.7-10.6-13.6-21.5 1.2-12.4 11-23.3 20.7-30.5 6.7-5 11.4-12.7 13-21.5.3 3.9.3 6.5.3 6.5v34.3c-.3 7.9-2.6 32.8-20.4 32.8ZM492.4 494.3c-32.8 0-32.3 41-32.3 41H473c2.8 0 5.1-2.2 5.2-4.9.6-10.3 2.8-33.3 14.2-33.3s12.3 13.2 13.8 24.1c.6 4-2.4 18.6-16.2 25.8-18.8 9.9-36.7 21.5-36.7 38.4s10.8 25.5 23.1 25.5c20.6 0 27.6-13.4 30.8-24.2v17.1c0 2.9 2.3 5.2 5.2 5.2H525v-73.5s1.7-41.1-32.6-41.1Zm-5.5 108.2c-9.8 0-14.7-10.6-13.6-21.5 1.2-12.4 11-23.3 20.7-30.5 6.7-5 11.4-12.7 13-21.5.3 3.9.3 6.5.3 6.5v34.3c-.3 7.9-2.6 32.8-20.4 32.8Zm242.9-67c-2.8 0-5-2.1-5.2-4.9-.7-10.5-3.8-33.6-14.4-33.6s-14.8 38.3-14.8 38.3v68.3c0 2.9-2.3 5.2-5.2 5.2h-12.7v-73.6s-.1-41 32.7-41 32.6 41.2 32.6 41.2h-13Zm-137.1-39.3h12.6c2.9 0 5.2 2.3 5.2 5.2v66.4s0 38.4 14.4 38.4c14.7 0 14.8-38.2 14.8-38.2v-66.6c0-2.9 2.3-5.2 5.2-5.2h12.6v71.7s.2 41.1-32.6 41.1c-34.3 0-32.2-41.1-32.2-41.1v-71.6M438.4 608.8h-12.6c-2.9 0-5.2-2.3-5.2-5.2v-66.4s0-38.4-14.4-38.4c-14.7 0-14.8 38.2-14.8 38.2v66.6c0 2.9-2.3 5.2-5.2 5.2h-12.6v-71.7s-.2-41.1 32.6-41.1c34.3 0 32.2 41.1 32.2 41.1v71.6m143-79.2h-18.3v-46.3c0-4.4-3.6-8-8-8h-9.8v54.4h-9.7v4.9h9.7v66.6c0 4.4 3.6 8 8 8h9.8v-74.6h18.3v-4.9Zm254.8-54.4h12.6c2.9 0 5.2 2.3 5.2 5.2v128.6h-12.6c-2.9 0-5.2-2.3-5.2-5.2V475.1Zm103 60.4s1.5-41.1-32.9-41.1-32.4 41-32.4 41V569s-2 41.1 32.3 41.1 33-41 33-41h-12.9c-2.8 0-5.1 2.2-5.2 4.9-.6 10.3-3.5 33.3-14.9 33.3s-14.4-38.4-14.4-38.4l-.3-33.6s.1-38.2 14.8-38.2 14.7 38.4 14.7 38.4v8.6l-30.6.2v3.5h48.8v-12.2Zm-647.6-59.3-41.5 42.4c-2.5 2.5.3 6.7 3.5 5.4l49.9-21.1c-2.9-9.6-6.9-18.6-11.9-26.7Zm-58 31.2 25.7-63.4s-.2-.1-.3-.2c-14.2-8-31.6 2.7-31.6 19.3v43c0 3.6 4.8 4.6 6.2 1.3Zm54.1-37.1c-6.4-9-14-16.7-22.4-22.5L240 510.1c-1.3 3.3 2.8 6.1 5.3 3.6l42.5-43.3ZM189 443.9s-.2.1-.3.2l25.7 63.4c1.3 3.3 6.2 2.3 6.2-1.3v-43c0-16.6-17.4-27.3-31.6-19.3Zm19 66.2-25.3-62.3c-8.5 5.9-16.1 13.5-22.4 22.5l42.5 43.3c2.5 2.5 6.6-.3 5.3-3.6Zm-10.1 8.5-41.5-42.4c-4.9 8.1-8.9 17-11.9 26.7l49.9 21.1c3.3 1.4 6-2.8 3.5-5.4Zm42.1 51.8 25.3 62.3c8.5-5.9 16.1-13.5 22.4-22.5l-42.5-43.4c-2.5-2.5-6.6.3-5.3 3.6Zm-79.7 39.8c6.4 9 14 16.7 22.4 22.5l25.3-62.3c1.3-3.3-2.8-6.1-5.3-3.6l-42.5 43.4Zm95.9-60.1 49.1 20.8c2.1-8.6 3.3-17.7 3.5-27.1h-51.4c-3.5 0-4.5 4.9-1.2 6.3Zm-6.1 11.8 41.5 42.4c4.9-8.1 8.9-17 11.9-26.7l-49.9-21.1c-3.3-1.4-6 2.8-3.5 5.4Zm-22.7 12.5v61.1c0 5.8 5.2 10.3 10.8 9.1 7.4-1.6 14.5-4.3 21.1-8.1l-25.7-63.4c-1.3-3.3-6.2-2.3-6.2 1.3Zm30-37.6h51.4c-.2-9.4-1.5-18.5-3.5-27.1l-49.1 20.8c-3.3 1.4-2.3 6.3 1.2 6.3Zm-66.8 7h-51.4c.2 9.4 1.5 18.5 3.5 27.1l49.1-20.8c3.3-1.4 2.3-6.3-1.2-6.3Zm23.8 29.3-25.7 63.4c6.6 3.8 13.7 6.5 21.1 8.1s10.8-3.3 10.8-9.1v-61.1c0-3.6-4.8-4.6-6.2-1.3Zm-22.6-42.7-49.1-20.8c-2.1 8.6-3.3 17.7-3.5 27.1h51.4c3.5 0 4.5-4.9 1.2-6.3Zm2.6 26.1-49.9 21.1c2.9 9.6 6.9 18.6 11.9 26.7l41.5-42.4c2.5-2.5-.3-6.7-3.5-5.4Z" />
</svg>